<svg width="16" height="16" viewBox="0 0 16 16" fill="none" xmlns="http://www.w3.org/2000/svg">
<path fill-rule="evenodd" clip-rule="evenodd" d="M4.66667 4.57143H11.3333V11.4286H4.66667V4.57143ZM4 4.57143C4 4.256 4.29867 4 4.66667 4H11.3333C11.7013 4 12 4.256 12 4.57143V11.4286C12 11.744 11.7013 12 11.3333 12H4.66667C4.29867 12 4 11.744 4 11.4286V4.57143ZM6.66667 6.28571C6.29867 6.28571 6 6.54171 6 6.85714V9.14286C6 9.45829 6.29867 9.71429 6.66667 9.71429H9.33333C9.70133 9.71429 10 9.45829 10 9.14286V6.85714C10 6.54171 9.70133 6.28571 9.33333 6.28571H6.66667Z" fill="black" fill-opacity="0.8"/>
</svg>
