<svg width="16" height="16" viewBox="0 0 16 16" fill="none" xmlns="http://www.w3.org/2000/svg">
<path fill-rule="evenodd" clip-rule="evenodd" d="M6.79262 4.9668H4V3.9668H7.29262H7.79262V4.4668V7.05707C7.93081 7.16675 8.04352 7.30673 8.12055 7.46686H10.0771L9.52732 6.92117L10.2318 6.21141L11.6429 7.61198L12.0004 7.96686L11.6429 8.32174L10.2318 9.7223L9.52732 9.01255L10.0771 8.46686H8.12268C8.04561 8.62885 7.93209 8.77041 7.79262 8.88111V11.4696V11.9696H7.29262H4V10.9696H6.79262V9.10621C6.27136 8.98652 5.88281 8.52284 5.88281 7.96909C5.88281 7.41534 6.27136 6.95166 6.79262 6.83196V4.9668ZM7.05875 8.13623C7.16301 8.13623 7.23468 8.05433 7.23468 7.96909C7.23468 7.88385 7.16301 7.80195 7.05875 7.80195C6.95449 7.80195 6.88281 7.88385 6.88281 7.96909C6.88281 8.05433 6.95449 8.13623 7.05875 8.13623Z" fill="black" fill-opacity="0.8"/>
</svg>
