<svg viewBox="0 0 16 16" xmlns="http://www.w3.org/2000/svg">
  <path d="M13.612 6.80119C14.1674 6.27364 14.6471 5.66723 15.033 5H13.8488C12.5833 6.81421 10.4815 8 8.10338 8C5.72524 8 3.62344 6.81421 2.35798 5H1.17373C1.55971 5.66728 2.0394 6.27373 2.59486 6.80131L1 8.39623L1.70712 9.10332L3.36446 7.44592C4.07518 7.96931 4.87565 8.37804 5.73857 8.64469L5.12156 10.866L6.08507 11.1336L6.71127 8.87929C7.16335 8.95862 7.62852 9 8.10338 9C8.57819 9 9.04332 8.95863 9.49537 8.87931L10.1216 11.1336L11.0851 10.866L10.4681 8.64473C11.3311 8.37806 12.1317 7.96928 12.8424 7.44582L14.5 9.10333L15.2071 8.39621L13.612 6.80119Z"
        fill-opacity="0.8"/>
</svg>
