<svg width="16" height="16" viewBox="0 0 16 16" fill="none" xmlns="http://www.w3.org/2000/svg">
<path fill-rule="evenodd" clip-rule="evenodd" d="M8.13495 11C5.8351 11 3.8128 9.80581 2.65659 8C3.8128 6.19419 5.8351 5 8.13495 5C10.4348 5 12.4571 6.19419 13.6133 8C12.4571 9.80581 10.4348 11 8.13495 11ZM8.13495 4C11.013 4 13.5124 5.6211 14.7699 8C13.5124 10.3789 11.013 12 8.13495 12C5.25691 12 2.75749 10.3789 1.5 8C2.75749 5.6211 5.25691 4 8.13495 4ZM8.13477 10C9.23934 10 10.1348 9.10457 10.1348 8C10.1348 6.89543 9.23934 6 8.13477 6C7.0302 6 6.13477 6.89543 6.13477 8C6.13477 9.10457 7.0302 10 8.13477 10Z" fill="black" fill-opacity="0.8"/>
</svg>
