<svg viewBox="0 0 16 16" fill="none" xmlns="http://www.w3.org/2000/svg">
  <path
    d="M10.5213 12C9.78 11.7997 8.88 11.5412 7.98267 11.2488C4.28667 10.0436 4 9.36107 4 9.18094C4 9.10582 4 8.96607 4.728 8.86834C5.40667 8.77706 6.38667 8.77706 7.33333 8.77706C8.352 8.77706 9.40667 8.77706 10.228 8.6664C11.692 8.46931 12 7.95881 12 7.56543C12 6.81422 10.772 6.0097 8.272 5.1147L7.64667 4.89984L7.48067 4.84289L7.31467 4.78594L7.01733 4.69386L6.38267 4.49839C6.16667 4.43296 5.95467 4.36672 5.74667 4.30695L5.45867 4.22536C5.18533 4.14782 4.90267 4.06624 4.66 4"
    stroke="black" stroke-width="0.5"/>
</svg>
