<svg width="16" height="16" viewBox="0 0 16 16" fill="none" xmlns="http://www.w3.org/2000/svg">
<path d="M3 5.08333C3 3.93333 3.93333 3 5.08333 3H6.33333V3.83333H5.08333C4.39333 3.83333 3.83333 4.39333 3.83333 5.08333V6.33333H3V5.08333ZM9.66667 3H10.9167C12.0667 3 13 3.93333 13 5.08333V6.33333H12.1667V5.08333C12.1667 4.39333 11.6067 3.83333 10.9167 3.83333H9.66667V3ZM3.83333 9.66667V10.9167C3.83333 11.6067 4.39333 12.1667 5.08333 12.1667H6.33333V13H5.08333C3.93333 13 3 12.0667 3 10.9167V9.66667H3.83333ZM13 9.66667V10.9167C13 12.0667 12.0667 13 10.9167 13H9.66667V12.1667H10.9167C11.6067 12.1667 12.1667 11.6067 12.1667 10.9167V9.66667H13Z" fill="black"/>
</svg>
